<svg width="1877" height="305" viewBox="0 0 1877 305" fill="none" xmlns="http://www.w3.org/2000/svg">
<g opacity="0.04" clip-path="url(#clip0_42_0)">
<path d="M21.7894 82.1897C29.1469 85.3072 46.9745 85.0238 46.9745 85.0238C47.2575 85.0238 43.0128 73.404 42.7299 72.5538C38.7682 64.335 26.3171 50.7314 16.4128 52.1484C9.05535 52.9986 5.09364 60.3673 6.79152 67.169C8.48939 74.2542 15.5639 79.3556 21.7894 82.1897Z" fill="#1A7F72"/>
<path d="M28.0149 134.053C35.6554 135.187 51.5022 130.652 52.9171 130.085C55.4639 139.154 58.8597 147.94 62.5384 157.009C64.8022 162.11 67.066 167.212 69.6129 172.313C68.198 170.046 66.7831 168.345 66.5001 168.062C60.5575 161.26 44.9937 151.341 35.6554 155.309C28.8639 158.143 26.883 166.361 30.2788 172.596C33.6745 178.831 42.1639 181.949 48.6724 183.083C55.4639 184.216 69.0469 180.532 72.7256 179.398C73.5746 181.382 74.7065 183.366 75.5554 185.066C80.0831 194.419 84.8937 203.488 89.1384 212.557C90.5533 215.674 91.9682 219.075 93.3831 222.193C91.9682 220.209 91.1193 218.792 90.8363 218.509C84.8937 211.707 69.3299 201.787 59.9916 205.755C53.2001 208.589 51.2192 216.808 54.615 223.043C58.0107 229.278 66.5001 232.396 73.0086 233.529C79.5171 234.379 92.2512 231.262 96.4959 230.128C97.9108 233.529 99.0427 236.93 100.175 240.048C101.024 242.315 101.872 244.582 102.438 246.849C103.004 249.117 103.57 251.384 104.419 253.651C105.551 257.902 106.683 262.437 107.532 266.688C108.098 269.522 108.664 272.639 109.23 275.474C107.815 272.356 104.702 266.121 104.419 265.554C99.6086 257.902 85.7427 245.716 75.8384 248.266C68.7639 249.967 65.6511 257.902 67.915 264.421C70.4618 271.222 78.1022 275.474 84.6107 277.457C91.6852 279.725 107.532 277.741 109.513 277.457C110.362 282.275 111.211 286.81 112.06 291.061C113.758 299.847 114.89 308.065 115.738 314.867H122.247C121.115 307.782 119.7 299.28 117.719 289.927C116.87 285.109 115.738 280.008 114.607 274.623C115.738 274.057 122.53 271.506 128.472 268.105C133.566 273.773 147.149 280.292 148.847 281.142C147.149 285.676 145.168 289.927 143.47 293.895C140.075 301.547 136.962 308.632 134.132 314.584H141.207C143.753 309.199 146.3 302.964 149.13 296.162C151.111 291.628 152.809 286.81 154.79 281.709C156.77 281.992 172.334 285.393 179.692 283.692C186.2 282.275 194.407 278.308 197.236 271.789C200.066 265.271 197.519 257.335 190.445 255.068C180.824 251.951 166.109 262.72 160.732 270.089C160.449 270.656 157.619 275.474 155.638 278.874C156.487 276.891 157.053 274.907 157.902 272.639C159.317 268.388 160.732 264.137 162.43 259.603C162.996 257.335 163.845 255.068 164.411 252.801C165.26 250.534 165.543 247.983 166.109 245.716C167.524 240.331 168.373 234.663 169.504 228.711C173.183 230.128 186.2 234.663 193.275 234.096C200.066 233.529 208.556 231.262 212.517 225.027C216.479 219.075 215.064 210.857 208.556 207.456C199.5 202.638 183.37 211.423 176.862 217.942C176.579 218.225 172.334 223.61 170.07 226.444C170.636 223.043 171.202 219.642 171.485 215.958C172.617 205.755 173.749 195.553 174.598 185.35C174.881 182.232 175.164 179.115 175.447 175.997C176.862 176.564 192.143 182.232 199.783 181.665C206.575 181.099 215.064 178.831 219.026 172.596C222.988 166.645 221.573 158.426 215.064 155.025C206.009 150.207 189.879 158.993 183.37 165.511C182.804 166.078 176.862 173.447 175.447 175.431C176.296 168.629 176.862 161.544 177.994 155.025C179.409 145.673 181.39 136.604 183.936 128.101C184.502 128.385 200.632 134.336 208.556 133.77C215.347 133.203 223.836 130.935 227.798 124.7C231.76 118.749 230.345 110.53 223.836 107.129C214.781 102.311 198.651 111.097 192.143 117.615C191.577 118.182 185.351 126.118 184.219 127.535C184.502 126.968 184.502 126.401 184.502 125.834C187.332 116.765 191.294 108.263 195.256 100.327C197.519 95.7929 200.066 91.5417 202.613 87.574C205.443 88.9911 218.743 95.5095 225.817 95.7929C232.609 96.0763 241.381 94.6592 245.909 88.9911C250.436 83.6063 249.87 75.1041 243.928 71.1364C235.439 65.4682 218.46 72.27 211.102 77.9382C210.819 78.2216 207.141 81.9059 204.594 84.4565C205.726 82.7561 206.858 80.7722 207.99 79.0718C212.234 72.5534 216.479 66.8852 220.441 62.0673C222.705 59.2332 224.685 56.6826 226.666 54.4153C230.345 54.4153 244.777 53.8485 251.002 51.0144C257.228 48.1803 264.302 42.7956 265.717 35.7104C267.132 28.9086 262.888 21.54 255.53 20.9731C245.343 19.8395 233.458 33.7265 229.779 42.2287C229.496 43.079 225.817 54.6987 225.817 54.6987H226.1C224.119 56.966 222.139 59.2332 219.875 61.7839C215.913 66.6018 211.385 72.27 207.141 78.505C202.613 84.7399 198.085 91.8251 193.841 99.7606C189.596 107.696 185.634 116.198 182.521 125.267V125.551C182.521 122.433 182.521 114.214 182.239 113.648C181.107 104.579 173.466 87.8574 163.562 85.8736C156.204 84.4565 150.262 90.1247 149.696 97.2099C149.13 104.295 154.224 111.664 159.317 116.198C164.977 121.3 180.824 126.401 182.239 126.684C179.409 135.47 177.145 144.822 175.447 154.458C174.598 159.843 173.749 165.511 172.9 170.896C172.9 168.345 172.9 166.078 172.9 165.795C171.768 156.726 164.128 140.005 154.224 138.021C146.866 136.604 140.924 142.272 140.358 149.357C139.792 156.442 144.885 163.811 149.979 168.345C155.073 172.88 168.656 177.414 172.051 178.548C171.768 180.815 171.485 182.799 171.202 185.066C170.07 195.269 168.938 205.472 167.241 215.391C166.675 218.792 166.109 222.476 165.543 225.877C165.543 223.61 165.543 221.626 165.543 221.343C164.411 212.274 156.77 195.553 146.866 193.569C139.509 192.152 133.566 197.82 133 204.905C132.434 211.99 137.528 219.359 142.621 223.893C147.432 228.144 159.883 232.679 164.128 233.813C163.279 237.213 162.713 240.898 161.864 244.299C161.298 246.566 160.732 248.833 159.883 251.1C159.034 253.368 158.468 255.635 157.619 257.902C156.204 262.153 154.507 266.405 152.809 270.656C151.677 273.49 150.545 276.324 149.413 278.874C149.979 275.474 150.828 268.388 150.828 267.822C150.828 261.87 148.847 251.951 144.602 245.149C144.602 244.299 144.602 243.448 144.319 242.598C143.187 235.513 136.679 230.412 129.604 232.396C119.7 234.946 113.475 252.234 112.909 261.303C112.909 261.87 113.192 267.822 113.475 271.506C112.909 269.239 112.626 267.255 112.06 264.987C110.928 260.736 109.796 256.202 108.664 251.667C108.098 249.4 107.249 247.133 106.683 244.866C106.117 242.598 104.985 240.331 104.419 238.064C102.438 232.679 100.175 227.294 97.9108 222.193C101.589 221.343 115.172 217.942 120.549 213.691C125.926 209.439 131.585 202.638 131.585 195.553C131.585 188.467 125.926 182.516 118.568 183.083C108.381 184.216 99.6086 200.37 97.9108 209.156C97.9108 209.723 97.0618 216.241 97.0618 219.926C95.6469 216.808 94.232 213.691 92.5342 210.29C88.0065 201.221 83.1959 192.152 78.3852 183.083C76.9703 180.248 75.5554 177.414 74.1405 174.58C75.5554 174.297 91.6852 170.613 97.6278 165.795C103.004 161.544 108.664 154.742 108.664 147.657C108.664 140.571 103.004 134.62 95.6469 135.187C85.4597 136.32 76.6873 152.474 74.9895 161.26C74.9895 161.827 74.1405 171.463 73.8575 173.73C71.0278 168.062 67.915 161.827 65.0852 155.875C61.1235 147.373 57.7277 138.587 55.1809 130.085C55.7469 129.802 72.7256 126.118 78.9512 121.3C84.3278 117.048 89.9873 110.247 89.9873 103.161C89.9873 96.0763 84.3278 90.1247 76.9703 90.6915C66.7831 91.8251 58.0107 107.979 56.3128 116.765C56.0299 117.332 55.1809 127.535 55.1809 129.518C54.8979 128.952 54.8979 128.385 54.615 128.101C51.7852 119.032 50.3703 109.68 49.5213 100.894C48.9554 95.7929 48.6724 90.9749 48.6724 86.157C51.7852 85.8736 66.5001 83.8897 72.7256 80.2054C78.6682 76.8045 84.8937 70.5695 85.7427 63.4843C86.5916 56.3991 81.498 49.8808 74.1405 49.8808C63.9533 49.8808 53.4831 64.9014 50.6533 73.687C50.3703 74.2538 49.5213 79.0718 48.6724 82.7561C48.6724 80.4888 48.6724 78.505 48.6724 76.2377C48.6724 68.5857 49.2384 61.5005 49.5213 55.2655C49.8043 51.5812 50.0873 48.4637 50.6533 45.6296C53.4831 43.6458 65.3682 35.1435 69.0469 29.192C72.4426 23.2404 75.5554 15.0216 72.7256 8.21978C70.1788 1.70139 62.5384 -1.98292 56.0299 1.41798C46.9745 6.23592 44.7107 24.374 46.1256 33.4431C46.1256 34.2933 49.8043 46.1965 49.8043 45.913H50.0873C49.8043 48.7471 49.2384 51.8646 48.9554 55.2655C48.3894 61.5005 47.8235 68.5857 47.5405 76.2377C47.2575 83.8897 47.2575 92.392 48.1064 101.178C48.9554 109.963 50.0873 119.316 52.6341 128.668V128.952C50.9362 126.401 46.4086 119.599 45.8426 119.032C39.9001 112.231 24.3362 102.311 14.9979 106.279C8.20641 109.113 6.22555 117.332 9.6213 123.567C13.0171 129.802 21.2234 132.919 28.0149 134.053Z" fill="#1A7F72"/>
<path d="M202.613 86.1568C202.896 86.1568 205.726 74.2537 206.009 73.4034C207.141 64.3344 204.311 46.1963 195.256 41.6617C188.747 38.5442 181.39 42.2285 178.843 49.0303C176.296 55.8321 179.409 64.051 183.087 69.7191C187.615 76.5209 202.613 86.1568 202.613 86.1568Z" fill="#1A7F72"/>
<path d="M314.956 161.826C319.766 163.81 331.651 163.526 331.651 163.526C331.651 163.526 329.105 155.874 328.822 155.307C326.275 149.923 318.068 140.854 311.56 141.987C306.749 142.554 304.202 147.372 305.334 151.906C306.183 156.441 310.994 159.842 314.956 161.826Z" fill="#1A7F72"/>
<path d="M318.917 195.835C324.011 196.685 334.481 193.568 335.33 193.285C337.028 199.236 339.292 205.188 341.556 210.856C342.971 214.257 344.669 217.658 346.083 220.775C345.234 219.358 344.386 218.224 344.103 217.941C340.141 213.407 329.954 206.888 323.728 209.722C319.2 211.706 318.068 216.807 320.332 221.059C322.596 225.31 327.973 227.294 332.5 227.86C337.028 228.427 346.083 226.16 348.347 225.31C348.913 226.443 349.479 227.86 350.328 228.994C353.441 234.946 356.554 241.18 359.383 247.132C360.515 249.116 361.364 251.383 362.213 253.367C361.364 252.233 360.515 251.1 360.515 250.816C356.554 246.282 346.366 239.763 340.141 242.598C335.613 244.581 334.481 249.683 336.745 253.934C339.009 258.185 344.386 260.169 348.913 260.736C353.158 261.302 361.647 259.319 364.477 258.468C365.326 260.736 366.175 263.003 367.024 264.987C367.59 266.404 368.156 267.821 368.439 269.521C368.722 270.938 369.288 272.639 369.571 274.056C370.137 276.89 370.986 280.007 371.552 282.558C372.117 284.542 372.4 286.242 372.683 288.226C371.834 286.242 369.854 281.991 369.571 281.708C366.458 276.607 357.12 268.671 350.894 270.372C346.083 271.505 344.103 276.607 345.8 280.858C347.498 285.392 352.592 288.226 356.837 289.36C361.647 290.777 371.834 289.36 373.249 289.36C373.815 292.477 374.381 295.595 374.947 298.429C376.079 304.381 376.645 309.482 377.494 314.016H381.739C380.89 309.198 380.041 303.814 378.909 297.579C378.343 294.461 377.494 291.06 376.645 287.659C377.494 287.376 381.739 285.676 385.7 283.408C389.096 287.093 397.869 291.344 399 291.911C397.869 294.745 396.737 297.579 395.322 300.413C393.058 305.514 391.077 310.049 389.096 314.016H393.907C395.605 310.332 397.303 306.364 399 301.83C400.132 298.712 401.547 295.595 402.679 292.194C403.811 292.477 414.281 294.461 419.092 293.611C423.337 292.761 428.713 290.21 430.694 285.959C432.675 281.708 430.977 276.607 426.449 274.906C420.224 272.639 410.32 280.007 406.924 284.825C406.641 285.109 404.66 288.51 403.528 290.494C404.094 289.076 404.66 287.943 404.943 286.526C406.075 283.692 406.924 280.858 407.773 278.024C408.339 276.607 408.622 275.189 409.188 273.489C409.754 272.072 410.037 270.372 410.32 268.954C411.169 265.27 412.018 261.586 412.583 257.902C415.13 258.752 423.62 261.869 428.147 261.586C432.675 261.302 438.335 259.602 440.881 255.634C443.428 251.667 442.579 246.282 438.335 244.015C432.392 240.897 421.639 246.565 417.394 250.816C417.111 251.1 414.564 254.501 412.866 256.201C413.149 253.934 413.715 251.667 413.998 249.399C414.847 242.881 415.413 236.079 415.979 229.277C416.262 227.294 416.545 225.026 416.545 223.042C417.394 223.326 427.581 227.294 432.675 226.727C437.203 226.443 442.862 224.743 445.409 220.775C447.956 216.807 447.107 211.423 442.862 209.155C436.92 206.038 426.166 211.706 421.922 215.957C421.639 216.241 417.677 221.059 416.828 222.476C417.394 217.941 417.96 213.407 418.526 208.872C419.375 202.637 420.79 196.685 422.488 191.017C422.771 191.301 433.524 195.268 438.618 194.702C443.145 194.418 448.805 192.718 451.352 188.75C453.898 184.782 453.049 179.398 448.805 177.13C442.862 174.013 432.109 179.681 427.864 183.932C427.581 184.215 423.337 189.6 422.771 190.45C422.771 190.167 423.054 189.884 423.054 189.317C425.035 183.365 427.298 177.697 430.128 172.596C431.543 169.478 433.241 166.928 434.939 164.094C436.92 164.944 445.692 169.195 450.22 169.478C454.747 169.762 460.407 168.628 463.52 164.944C466.349 161.259 466.067 155.875 462.105 153.324C456.445 149.64 445.409 154.174 440.598 157.859C440.315 158.142 438.052 160.409 436.354 162.11C437.203 160.976 437.769 159.559 438.618 158.425C441.447 154.174 444.277 150.49 446.824 147.372C448.239 145.672 449.654 143.972 450.786 142.271C453.049 142.271 462.671 141.988 466.632 140.004C470.594 138.02 475.405 134.619 476.254 129.801C477.103 125.267 474.556 120.449 469.745 120.165C462.954 119.315 455.03 128.667 452.766 134.052C452.484 134.619 450.22 142.271 450.22 142.271C450.22 142.271 450.22 142.271 450.503 142.271C449.371 143.688 447.956 145.389 446.541 147.089C443.994 150.207 440.881 153.891 438.052 158.142C435.222 162.393 432.109 166.928 429.279 172.029C426.449 177.13 423.903 182.798 421.922 188.75V189.033C421.922 187.05 421.922 181.665 421.922 181.098C421.073 175.146 416.262 164.093 409.471 162.96C404.66 162.11 400.698 165.794 400.415 170.328C400.132 175.146 403.528 179.681 406.641 182.798C410.32 186.199 420.79 189.317 421.639 189.6C419.658 195.552 418.243 201.503 417.111 207.738C416.545 211.423 415.979 214.824 415.413 218.508C415.413 216.807 415.413 215.39 415.413 215.107C414.564 209.155 409.754 198.102 402.962 196.969C398.152 196.119 394.19 199.803 393.907 204.337C393.624 209.155 397.02 213.69 400.132 216.807C403.528 219.925 412.3 222.759 414.564 223.609C414.281 225.026 414.281 226.443 413.998 227.86C413.149 234.662 412.3 241.18 411.452 247.982C411.169 250.25 410.603 252.517 410.32 254.784C410.32 253.367 410.32 251.95 410.32 251.95C409.471 245.998 404.66 234.946 397.869 233.812C393.058 232.962 389.096 236.646 388.813 241.18C388.53 245.998 391.926 250.533 395.039 253.65C398.152 256.485 406.358 259.319 409.188 260.169C408.622 262.436 408.339 264.703 407.773 266.971C407.207 268.388 406.924 270.088 406.641 271.505C406.075 272.922 405.792 274.339 405.226 276.04C404.094 278.874 403.245 281.708 402.113 284.259C401.264 286.242 400.698 287.943 399.849 289.643C400.132 287.376 400.698 282.841 400.698 282.558C400.698 278.59 399.283 272.072 396.454 267.537C396.454 266.971 396.454 266.404 396.454 265.837C395.605 261.302 391.36 257.902 386.832 259.035C380.324 260.736 376.362 272.072 376.079 278.024C376.079 278.307 376.362 282.275 376.362 284.542C376.079 283.125 375.796 281.708 375.513 280.291C374.947 277.457 374.098 274.623 373.249 271.505C372.683 270.088 372.4 268.671 371.834 266.971C371.551 265.554 370.703 263.853 370.137 262.436C368.722 259.035 367.307 255.351 365.892 251.95C368.439 251.383 377.211 249.116 380.89 246.282C384.569 243.448 388.247 239.197 388.247 234.379C388.247 229.844 384.569 225.593 379.758 226.16C372.966 227.01 367.307 237.496 366.175 243.448C366.175 243.731 365.609 247.982 365.609 250.533C364.76 248.549 363.628 246.282 362.779 244.298C359.666 238.346 356.554 232.395 353.441 226.443C352.592 224.743 351.46 222.759 350.611 221.059C351.46 220.775 362.213 218.508 366.175 215.39C369.854 212.556 373.532 208.305 373.532 203.487C373.532 198.953 369.854 194.702 365.043 195.268C358.251 196.119 352.592 206.605 351.46 212.556C351.46 213.123 350.894 219.075 350.611 220.775C348.63 216.807 346.366 212.556 344.669 208.589C342.122 202.92 339.858 197.252 338.16 191.584C338.443 191.584 349.762 189.033 353.724 185.916C357.403 183.082 361.081 178.831 361.081 174.013C361.081 169.478 357.403 165.227 352.592 165.794C345.8 166.644 340.141 177.13 339.009 183.082C339.009 183.649 338.443 190.167 338.16 191.301C338.16 191.017 337.877 190.734 337.877 190.167C336.179 184.215 335.047 177.98 334.481 172.312C334.198 168.911 333.915 165.794 333.915 162.676C335.896 162.393 345.8 161.259 349.762 158.709C353.724 156.441 357.686 152.474 358.251 147.656C358.817 143.121 355.422 138.587 350.611 138.587C343.82 138.587 337.028 148.506 335.047 154.174C335.047 154.458 334.198 157.859 333.915 160.126C333.915 158.709 333.915 157.292 333.915 155.875C333.915 150.773 334.198 146.239 334.481 141.988C334.764 139.72 335.047 137.453 335.047 135.469C337.028 134.052 344.668 128.667 347.215 124.7C349.479 121.015 351.46 115.347 349.762 111.096C348.064 106.845 343.254 104.294 338.726 106.562C332.783 109.679 331.086 121.582 332.217 127.534C332.217 128.101 334.481 135.753 334.764 135.753C334.481 137.737 334.198 139.72 333.915 141.988C333.632 146.239 333.066 150.773 333.066 155.875C333.066 160.976 333.066 166.361 333.349 172.312C333.915 178.264 334.764 184.215 336.462 190.45C336.462 190.45 336.462 190.45 336.462 190.734C335.33 189.033 332.217 184.499 331.934 184.215C327.973 179.681 317.785 173.163 311.56 175.997C307.032 177.98 305.9 183.082 308.164 187.333C309.296 193.001 314.673 195.268 318.917 195.835Z" fill="#1A7F72"/>
<path d="M433.807 164.377C433.807 164.377 436.071 156.442 436.071 156.158C436.92 150.207 434.939 138.303 428.996 135.469C424.752 133.485 419.658 136.036 418.243 140.287C416.545 144.822 418.809 150.207 421.073 153.891C423.903 158.142 433.807 164.377 433.807 164.377Z" fill="#1A7F72"/>
<path d="M759.515 172.03C764.043 174.013 775.079 173.73 775.079 173.73C775.079 173.73 772.815 166.645 772.532 166.078C770.268 160.977 762.628 152.758 756.402 153.608C751.875 154.175 749.611 158.709 750.46 162.96C751.309 167.212 755.553 170.612 759.515 172.03Z" fill="#1A7F72"/>
<path d="M763.194 204.054C767.722 204.621 777.626 201.787 778.475 201.787C779.89 207.172 782.154 212.84 784.418 218.225C785.833 221.342 787.248 224.46 788.663 227.577C787.814 226.16 786.965 225.027 786.965 225.027C783.286 220.775 773.665 214.824 768.005 217.374C763.76 219.075 762.629 224.176 764.609 227.861C766.873 231.828 771.684 233.529 775.929 234.379C780.173 234.946 788.38 232.679 790.643 232.112C791.209 233.245 791.775 234.379 792.341 235.513C795.171 241.181 798.001 246.849 800.548 252.517C801.397 254.501 802.246 256.485 803.094 258.469C802.246 257.335 801.68 256.201 801.397 256.201C797.718 251.95 788.097 245.999 782.437 248.549C778.192 250.25 777.06 255.351 779.041 259.035C781.305 263.003 786.116 264.704 790.36 265.554C794.322 266.121 802.246 264.137 804.792 263.287C805.641 265.27 806.49 267.254 807.056 269.522C807.622 270.939 807.905 272.356 808.471 273.773C808.754 275.19 809.32 276.607 809.603 278.024C810.169 280.574 811.018 283.409 811.584 285.959C811.867 287.66 812.433 289.644 812.716 291.344C811.867 289.36 809.886 285.676 809.886 285.109C807.056 280.291 798.284 272.922 792.341 274.623C788.097 275.757 786.116 280.574 787.531 284.542C788.946 288.793 793.756 291.344 797.718 292.478C801.963 293.895 811.867 292.478 812.999 292.478C813.565 295.312 814.131 298.146 814.697 300.98C815.546 306.365 816.395 311.466 816.961 315.717H820.922C820.356 311.183 819.224 306.081 818.092 300.413C817.526 297.579 816.96 294.461 816.112 291.061C816.96 290.777 820.922 289.077 824.601 287.093C827.714 290.494 835.92 294.745 837.052 295.028C835.92 297.862 834.788 300.413 833.656 302.964C831.675 307.782 829.695 312.033 827.997 315.717H832.524C833.939 312.316 835.637 308.632 837.335 304.381C838.467 301.547 839.599 298.713 840.731 295.595C841.863 295.879 851.484 297.862 856.012 296.729C859.973 295.879 865.067 293.611 866.765 289.36C868.463 285.392 867.048 280.574 862.803 279.157C856.861 277.174 847.805 283.975 844.409 288.51C844.126 288.793 842.429 291.911 841.297 293.895C841.863 292.761 842.146 291.344 842.712 290.21C843.561 287.66 844.409 285.109 845.541 282.275C845.824 280.858 846.39 279.441 846.673 278.024C847.239 276.607 847.522 275.19 847.805 273.773C848.654 270.372 849.22 266.971 849.786 263.287C852.05 264.137 859.973 266.971 864.218 266.687C868.463 266.404 873.556 264.987 876.103 261.303C878.367 257.618 877.518 252.517 873.556 250.533C867.897 247.699 857.992 253.084 854.031 256.768C853.748 257.052 851.201 260.169 849.786 261.87C850.069 259.886 850.352 257.618 850.635 255.635C851.484 249.4 852.05 243.165 852.616 236.93C852.899 234.946 852.899 232.962 853.182 231.261C854.031 231.545 863.369 235.229 868.18 234.662C872.424 234.379 877.518 232.962 880.065 229.278C882.329 225.593 881.48 220.492 877.518 218.508C871.858 215.674 861.954 221.059 857.993 224.743C857.71 225.027 854.031 229.561 853.182 230.695C853.748 226.444 854.031 222.192 854.88 218.225C855.729 212.557 856.861 206.888 858.558 201.787C858.841 201.787 868.746 205.755 873.556 205.471C877.801 205.188 882.895 203.771 885.441 200.087C887.705 196.402 886.856 191.301 882.895 189.317C877.235 186.483 867.331 191.868 863.369 195.552C863.086 195.835 859.124 200.653 858.558 201.787C858.558 201.504 858.841 201.22 858.841 200.937C860.539 195.269 862.803 190.167 865.35 185.349C866.765 182.515 868.18 179.965 869.878 177.414C871.575 178.264 879.782 182.232 884.027 182.515C888.271 182.799 893.648 181.665 896.195 178.264C899.024 174.863 898.742 169.762 894.78 167.211C889.686 163.81 879.216 167.778 874.688 171.462C874.405 171.746 872.141 173.73 870.727 175.43C871.293 174.296 872.141 173.163 872.707 172.029C875.254 168.061 878.084 164.661 880.348 161.543C881.763 159.843 882.895 158.426 884.027 157.009C886.29 157.009 895.063 156.725 899.024 155.025C902.703 153.324 907.231 149.923 908.08 145.672C908.929 141.421 906.382 137.17 901.854 136.603C895.629 136.036 888.271 144.539 886.007 149.64C885.724 150.207 883.461 157.292 883.744 157.292C882.612 158.709 881.197 160.126 880.065 161.543C877.518 164.661 874.971 168.061 872.141 171.746C869.312 175.713 866.482 179.965 863.935 184.783C861.388 189.6 858.841 194.702 856.861 200.37C856.861 200.37 856.861 200.37 856.861 200.653C856.861 198.953 856.861 193.568 856.861 193.285C856.012 187.617 851.484 177.414 845.258 176.28C840.731 175.43 837.052 178.831 836.769 183.366C836.486 187.9 839.599 192.151 842.712 194.985C846.107 198.103 856.012 201.22 856.578 201.504C854.88 206.888 853.465 212.557 852.333 218.508C851.767 221.909 851.201 225.31 850.918 228.711C850.918 227.01 850.918 225.593 850.918 225.593C850.069 219.925 845.541 209.722 839.316 208.589C834.788 207.739 831.109 211.139 830.826 215.674C830.544 220.209 833.656 224.46 836.769 227.294C839.882 230.128 848.088 232.962 850.352 233.529C850.069 234.946 850.069 236.079 849.786 237.496C848.937 243.731 848.371 249.966 847.522 256.201C847.239 258.469 846.956 260.452 846.39 262.72C846.39 261.303 846.39 260.169 846.39 259.886C845.541 254.218 841.014 244.015 834.788 242.881C830.261 242.031 826.582 245.432 826.299 249.966C826.016 254.501 829.129 258.752 832.241 261.586C835.354 264.137 842.712 266.971 845.541 267.821C844.975 270.088 844.692 272.072 844.126 274.34C843.843 275.757 843.561 277.174 842.995 278.591C842.429 280.008 842.146 281.425 841.58 282.558C840.731 285.109 839.599 287.943 838.75 290.21C838.184 291.911 837.335 293.611 836.769 295.312C837.052 293.044 837.618 289.077 837.618 288.51C837.618 284.826 836.486 278.874 833.656 274.623C833.656 274.056 833.656 273.489 833.656 272.922C833.09 268.671 828.846 265.554 824.601 266.687C818.658 268.388 814.697 278.874 814.414 284.542C814.414 284.826 814.697 288.51 814.697 290.777C814.414 289.36 814.131 288.226 813.848 286.809C813.282 284.259 812.433 281.425 811.867 278.591C811.584 277.174 811.018 275.757 810.735 274.34C810.452 272.922 809.886 271.505 809.32 270.088C808.188 266.687 806.773 263.57 805.358 260.453C807.622 259.886 815.829 257.902 819.224 255.351C822.62 252.8 826.016 248.549 826.016 244.298C826.016 240.047 822.62 236.363 818.092 236.646C811.867 237.213 806.49 247.132 805.358 252.8C805.358 253.084 804.792 257.052 804.792 259.319C803.943 257.335 803.095 255.351 801.963 253.367C799.133 247.699 796.303 242.314 793.19 236.646C792.341 234.946 791.492 233.245 790.643 231.545C791.492 231.261 801.397 228.994 805.075 226.16C808.471 223.609 811.867 219.358 811.867 215.107C811.867 210.856 808.471 207.172 803.943 207.455C797.718 208.022 792.341 217.941 791.209 223.609C791.209 223.893 790.643 229.844 790.643 231.261C788.663 227.577 786.682 223.609 784.984 219.925C782.72 214.824 780.456 209.439 778.758 204.054C779.041 204.054 789.511 201.504 793.19 198.67C796.586 196.119 799.982 191.868 799.982 187.617C799.982 183.366 796.586 179.681 792.058 179.965C785.833 180.531 780.456 190.451 779.324 196.119C779.324 196.686 778.758 202.637 778.758 203.771C778.758 203.487 778.475 203.204 778.475 202.921C776.777 197.253 775.929 191.584 775.363 186.2C775.08 183.082 774.797 180.248 774.797 177.131C776.777 176.847 785.833 175.713 789.512 173.446C793.19 171.179 796.869 167.495 797.435 163.244C798.001 158.992 794.888 154.741 790.36 154.741C784.135 154.741 777.626 164.094 775.929 169.195C775.929 169.479 775.08 172.596 774.797 174.863C774.797 173.446 774.797 172.313 774.797 170.896C774.797 166.078 775.08 161.826 775.363 158.142C775.646 155.875 775.646 153.891 775.929 152.191C777.626 151.057 784.984 145.956 787.248 142.271C789.512 138.587 791.209 133.486 789.512 129.518C787.814 125.55 783.286 123.283 779.324 125.267C773.665 128.101 772.25 139.437 773.099 144.822C773.099 145.389 775.363 152.474 775.363 152.474C775.08 154.174 774.797 156.158 774.797 158.142C774.514 162.11 773.948 166.361 773.948 171.179C773.948 175.997 773.948 181.098 774.231 186.483C774.797 191.868 775.363 197.536 777.06 203.487C777.06 203.487 777.06 203.487 777.06 203.771C776.212 202.354 773.099 198.103 772.816 197.819C769.137 193.568 759.516 187.617 753.856 190.167C749.611 191.868 748.48 196.969 750.46 200.653C754.139 201.504 759.233 203.204 763.194 204.054Z" fill="#1A7F72"/>
<path d="M870.161 174.579C870.161 174.579 872.141 167.211 872.141 166.927C872.99 161.259 871.01 150.206 865.633 147.655C861.671 145.672 857.144 147.939 855.446 152.19C854.031 156.441 855.729 161.542 857.993 164.943C861.105 168.628 870.161 174.579 870.161 174.579Z" fill="#1A7F72"/>
<path d="M985.616 82.1882C992.974 85.3057 1010.8 85.0223 1010.8 85.0223C1011.08 85.0223 1006.84 73.4026 1006.56 72.5523C1002.59 64.3335 990.144 50.7299 980.24 52.1469C972.882 52.9972 968.92 60.3658 970.618 67.1676C972.033 74.2528 979.391 79.3541 985.616 82.1882Z" fill="#1A7F72"/>
<path d="M991.559 134.052C999.199 135.186 1015.05 130.652 1016.46 130.085C1019.01 139.154 1022.4 147.939 1026.08 157.008C1028.35 162.11 1030.61 167.211 1033.16 172.312C1031.74 170.045 1030.33 168.345 1030.04 168.061C1024.1 161.26 1008.54 151.34 999.199 155.308C992.408 158.142 990.427 166.361 993.822 172.596C997.218 178.831 1005.71 181.948 1012.22 183.082C1019.01 184.216 1032.59 180.531 1036.27 179.398C1037.12 181.382 1038.25 183.365 1039.1 185.066C1043.63 194.418 1048.44 203.487 1052.68 212.556C1054.1 215.674 1055.51 219.075 1056.93 222.192C1055.51 220.208 1054.66 218.791 1054.38 218.508C1048.44 211.706 1032.87 201.787 1023.54 205.755C1016.74 208.589 1014.76 216.808 1018.16 223.043C1021.55 229.277 1030.04 232.395 1036.55 233.529C1043.06 234.379 1055.79 231.261 1060.04 230.128C1061.45 233.529 1062.59 236.93 1063.72 240.047C1064.57 242.314 1065.42 244.582 1065.98 246.849C1066.55 249.116 1067.11 251.383 1067.96 253.651C1069.09 257.902 1070.23 262.436 1071.08 266.687C1071.64 269.521 1072.21 272.639 1072.77 275.473C1071.36 272.356 1068.25 266.121 1067.96 265.554C1063.15 257.902 1049.29 245.715 1039.38 248.266C1032.31 249.966 1029.19 257.902 1031.46 264.42C1034.01 271.222 1041.65 275.473 1048.15 277.457C1055.23 279.724 1071.08 277.74 1073.06 277.457C1073.91 282.275 1074.75 286.809 1075.6 291.06C1077.3 299.846 1078.43 308.065 1079.28 314.867H1085.79C1084.66 307.782 1083.24 299.279 1081.26 289.927C1080.41 285.109 1079.28 280.008 1078.15 274.623C1079.28 274.056 1086.07 271.505 1092.02 268.104C1097.11 273.773 1110.69 280.291 1112.39 281.141C1110.69 285.676 1108.71 289.927 1107.01 293.895C1103.62 301.547 1100.51 308.632 1097.68 314.583H1104.75C1107.3 309.199 1109.84 302.964 1112.67 296.162C1114.65 291.627 1116.35 286.809 1118.33 281.708C1120.31 281.991 1135.88 285.392 1143.24 283.692C1149.74 282.275 1157.95 278.307 1160.78 271.789C1163.61 265.27 1161.06 257.335 1153.99 255.068C1144.37 251.95 1129.65 262.72 1124.28 270.088C1123.99 270.655 1121.16 275.473 1119.18 278.874C1120.03 276.89 1120.6 274.906 1121.45 272.639C1122.86 268.388 1124.28 264.137 1125.97 259.602C1126.54 257.335 1127.39 255.068 1127.95 252.8C1128.8 250.533 1129.09 247.982 1129.65 245.715C1131.07 240.33 1131.92 234.662 1133.05 228.711C1136.73 230.128 1149.74 234.662 1156.82 234.095C1163.61 233.529 1172.1 231.261 1176.06 225.026C1180.02 219.075 1178.61 210.856 1172.1 207.455C1163.04 202.637 1146.91 211.423 1140.41 217.941C1140.12 218.225 1135.88 223.609 1133.61 226.443C1134.18 223.043 1134.75 219.642 1135.03 215.957C1136.16 205.755 1137.29 195.552 1138.14 185.349C1138.42 182.232 1138.71 179.114 1138.99 175.997C1140.41 176.564 1155.69 182.232 1163.33 181.665C1170.12 181.098 1178.61 178.831 1182.57 172.596C1186.53 166.644 1185.12 158.425 1178.61 155.025C1169.55 150.207 1153.42 158.992 1146.91 165.511C1146.35 166.078 1140.41 173.446 1138.99 175.43C1139.84 168.628 1140.41 161.543 1141.54 155.025C1142.95 145.672 1144.93 136.603 1147.48 128.101C1148.05 128.384 1164.18 134.336 1172.1 133.769C1178.89 133.202 1187.38 130.935 1191.34 124.7C1195.3 118.748 1193.89 110.53 1187.38 107.129C1178.32 102.311 1162.19 111.096 1155.69 117.615C1155.12 118.182 1148.89 126.117 1147.76 127.534C1148.05 126.967 1148.05 126.4 1148.05 125.834C1150.88 116.765 1154.84 108.262 1158.8 100.327C1161.06 95.7923 1163.61 91.5412 1166.16 87.5735C1168.99 88.9905 1182.29 95.5089 1189.36 95.7923C1196.15 96.0757 1204.92 94.6587 1209.45 88.9905C1213.98 83.6058 1213.41 75.1035 1207.47 71.1358C1198.98 65.4676 1182 72.2694 1174.65 77.9376C1174.36 78.221 1170.68 81.9053 1168.14 84.456C1169.27 82.7555 1170.4 80.7717 1171.53 79.0712C1175.78 72.5528 1180.02 66.8847 1183.98 62.0667C1186.25 59.2327 1188.23 56.682 1190.21 54.4147C1193.89 54.4147 1208.32 53.8479 1214.55 51.0138C1220.77 48.1797 1227.85 42.795 1229.26 35.7098C1230.68 28.908 1226.43 21.5394 1219.07 20.9726C1208.89 19.8389 1197 33.7259 1193.32 42.2282C1193.04 43.0784 1189.36 54.6981 1189.36 54.6981H1189.64C1187.66 56.9654 1185.68 59.2327 1183.42 61.7833C1179.46 66.6013 1174.93 72.2694 1170.68 78.5044C1166.16 84.7394 1161.63 91.8246 1157.38 99.76C1153.14 107.695 1149.18 116.198 1146.07 125.267V125.55C1146.07 122.433 1146.07 114.214 1145.78 113.647C1144.65 104.578 1137.01 87.8569 1127.11 85.873C1119.75 84.456 1113.81 90.1241 1113.24 97.2093C1112.67 104.295 1117.77 111.663 1122.86 116.198C1128.52 121.299 1144.37 126.4 1145.78 126.684C1142.95 135.469 1140.69 144.822 1138.99 154.458C1138.14 159.843 1137.29 165.511 1136.44 170.895C1136.44 168.345 1136.44 166.077 1136.44 165.794C1135.31 156.725 1127.67 140.004 1117.77 138.02C1110.41 136.603 1104.47 142.271 1103.9 149.356C1103.34 156.442 1108.43 163.81 1113.52 168.345C1118.62 172.879 1132.2 177.414 1135.59 178.547C1135.31 180.815 1135.03 182.799 1134.75 185.066C1133.61 195.269 1132.48 205.471 1130.78 215.391C1130.22 218.791 1129.65 222.476 1129.09 225.877C1129.09 223.609 1129.09 221.625 1129.09 221.342C1127.95 212.273 1120.31 195.552 1110.41 193.568C1103.05 192.151 1097.11 197.819 1096.54 204.904C1095.98 211.99 1101.07 219.358 1106.17 223.893C1110.98 228.144 1123.43 232.678 1127.67 233.812C1126.82 237.213 1126.26 240.897 1125.41 244.298C1124.84 246.565 1124.28 248.833 1123.43 251.1C1122.58 253.367 1122.01 255.634 1121.16 257.902C1119.75 262.153 1118.05 266.404 1116.35 270.655C1115.22 273.489 1114.09 276.323 1112.96 278.874C1113.52 275.473 1114.37 268.388 1114.37 267.821C1114.37 261.869 1112.39 251.95 1108.15 245.148C1108.15 244.298 1108.15 243.448 1107.86 242.598C1106.73 235.512 1100.22 230.411 1093.15 232.395C1083.24 234.946 1077.02 252.234 1076.45 261.303C1076.45 261.869 1076.74 267.821 1077.02 271.505C1076.45 269.238 1076.17 267.254 1075.6 264.987C1074.47 260.736 1073.34 256.201 1072.21 251.667C1071.64 249.399 1070.79 247.132 1070.23 244.865C1069.66 242.598 1068.53 240.33 1067.96 238.063C1065.98 232.678 1063.72 227.294 1061.45 222.192C1065.13 221.342 1078.72 217.941 1084.09 213.69C1089.47 209.439 1095.13 202.637 1095.13 195.552C1095.13 188.467 1089.47 182.515 1082.11 183.082C1071.92 184.216 1063.15 200.37 1061.45 209.156C1061.45 209.722 1060.61 216.241 1060.61 219.925C1059.19 216.808 1057.78 213.69 1056.08 210.289C1051.55 201.22 1046.74 192.151 1041.93 183.082C1040.51 180.248 1039.1 177.414 1037.68 174.58C1039.1 174.296 1055.23 170.612 1061.17 165.794C1066.55 161.543 1072.21 154.741 1072.21 147.656C1072.21 140.571 1066.55 134.619 1059.19 135.186C1049 136.32 1040.23 152.474 1038.53 161.26C1038.53 161.826 1037.68 171.462 1037.4 173.73C1034.29 167.495 1031.18 161.543 1028.35 155.308C1024.38 146.806 1020.99 138.02 1018.44 129.518C1019.01 129.234 1035.99 125.55 1042.21 120.732C1047.59 116.481 1053.25 109.679 1053.25 102.594C1053.25 95.5089 1047.59 89.5573 1040.23 90.1241C1030.04 91.2578 1021.27 107.412 1019.57 116.198C1019.29 116.765 1018.44 126.967 1018.44 128.951C1018.16 128.384 1018.16 127.817 1017.88 127.534C1015.05 118.465 1013.63 109.112 1012.78 100.327C1012.22 95.2255 1011.93 90.4076 1011.93 85.5896C1015.05 85.3062 1029.76 83.3223 1035.99 79.638C1041.93 76.2371 1048.15 70.0022 1049 62.917C1049.85 55.8318 1044.76 49.3134 1037.4 49.3134C1027.21 49.3134 1016.74 64.334 1013.91 73.1197C1013.63 73.6865 1012.78 78.5044 1011.93 82.1887C1011.93 79.9214 1011.93 77.9376 1011.93 75.6703C1011.93 68.0183 1012.5 60.9331 1012.78 54.6981C1013.07 51.0138 1013.35 47.8963 1013.91 45.0623C1016.74 43.0784 1028.63 34.5762 1032.31 28.6246C1035.7 22.673 1038.82 14.4542 1035.99 7.65239C1033.44 1.13401 1025.8 -2.5503 1019.29 0.850599C1010.24 5.66854 1007.97 23.8067 1009.39 32.8757C1009.39 33.7259 1013.07 45.6291 1013.07 45.3457H1013.35C1013.07 48.1797 1012.5 51.2972 1012.22 54.6981C1011.65 60.9331 1011.08 68.0183 1010.8 75.6703C1010.52 83.3223 1010.52 91.8246 1011.37 100.61C1012.22 109.396 1013.35 118.748 1015.89 128.101V128.384C1014.2 125.834 1009.67 119.032 1009.1 118.465C1003.16 111.663 987.597 101.744 978.259 105.712C971.467 108.546 969.486 116.765 972.882 122.999C976.561 129.801 985.05 132.919 991.559 134.052Z" fill="#1A7F72"/>
<path d="M1166.44 86.1563C1166.72 86.1563 1169.55 74.2532 1169.84 73.4029C1170.97 64.3339 1168.14 46.1958 1159.08 41.6612C1152.57 38.5437 1145.22 42.228 1142.67 49.0298C1140.12 55.8316 1143.24 64.0505 1146.91 69.7186C1151.16 76.5204 1166.44 86.1563 1166.44 86.1563Z" fill="#1A7F72"/>
<path d="M1632.22 82.1882C1639.58 85.3057 1657.41 85.0223 1657.41 85.0223C1657.69 85.0223 1653.45 73.4026 1653.16 72.5523C1649.2 64.3335 1636.75 50.7299 1626.85 52.1469C1619.49 52.9972 1615.53 60.3658 1617.23 67.1676C1618.92 74.2528 1626 79.3541 1632.22 82.1882Z" fill="#1A7F72"/>
<path d="M1638.45 134.052C1646.09 135.186 1661.94 130.652 1663.35 130.085C1665.9 139.154 1669.29 147.939 1672.97 157.008C1675.24 162.11 1677.5 167.211 1680.05 172.312C1678.63 170.045 1677.22 168.345 1676.93 168.061C1670.99 161.26 1655.43 151.34 1646.09 155.308C1639.3 158.142 1637.32 166.361 1640.71 172.596C1644.11 178.831 1652.6 181.948 1659.11 183.082C1665.9 184.216 1679.48 180.531 1683.16 179.398C1684.01 181.382 1685.14 183.365 1685.99 185.066C1690.52 194.418 1695.33 203.487 1699.57 212.556C1700.99 215.674 1702.4 219.075 1703.82 222.192C1702.4 220.208 1701.55 218.791 1701.27 218.508C1695.33 211.706 1679.76 201.787 1670.43 205.755C1663.63 208.589 1661.65 216.808 1665.05 223.043C1668.44 229.277 1676.93 232.395 1683.44 233.529C1689.95 234.379 1702.69 231.261 1706.93 230.128C1708.34 233.529 1709.48 236.93 1710.61 240.047C1711.46 242.314 1712.31 244.582 1712.87 246.849C1713.44 249.116 1714 251.383 1714.85 253.651C1715.98 257.902 1717.12 262.436 1717.97 266.687C1718.53 269.521 1719.1 272.639 1719.66 275.473C1718.25 272.356 1715.14 266.121 1714.85 265.554C1710.04 257.902 1696.18 245.715 1686.27 248.266C1679.2 249.966 1676.08 257.902 1678.35 264.42C1680.9 271.222 1688.54 275.473 1695.04 277.457C1702.12 279.724 1717.97 277.74 1719.95 277.457C1720.8 282.275 1721.64 286.809 1722.49 291.06C1724.19 299.846 1725.32 308.065 1726.17 314.867H1732.68C1731.55 307.782 1730.13 299.279 1728.15 289.927C1727.3 285.109 1726.17 280.008 1725.04 274.623C1726.17 274.056 1732.96 271.505 1738.91 268.104C1744 273.773 1757.58 280.291 1759.28 281.141C1757.58 285.676 1755.6 289.927 1753.9 293.895C1750.51 301.547 1747.4 308.632 1744.57 314.583H1751.64C1754.19 309.199 1756.73 302.964 1759.56 296.162C1761.54 291.627 1763.24 286.809 1765.22 281.708C1767.2 281.991 1782.77 285.392 1790.13 283.692C1796.63 282.275 1804.84 278.307 1807.67 271.789C1810.5 265.27 1807.95 257.335 1800.88 255.068C1791.26 251.95 1776.54 262.72 1771.17 270.088C1770.88 270.655 1768.05 275.473 1766.07 278.874C1766.92 276.89 1767.49 274.906 1768.34 272.639C1769.75 268.388 1771.17 264.137 1772.86 259.602C1773.43 257.335 1774.28 255.068 1774.84 252.8C1775.69 250.533 1775.98 247.982 1776.54 245.715C1777.96 240.33 1778.81 234.662 1779.94 228.711C1783.62 230.128 1796.63 234.662 1803.71 234.095C1810.5 233.529 1818.99 231.261 1822.95 225.026C1826.91 219.075 1825.5 210.856 1818.99 207.455C1809.93 202.637 1793.8 211.423 1787.3 217.941C1787.01 218.225 1782.77 223.609 1780.5 226.443C1781.07 223.043 1781.64 219.642 1781.92 215.957C1783.05 205.755 1784.18 195.552 1785.03 185.349C1785.31 182.232 1785.6 179.114 1785.88 175.997C1787.3 176.564 1802.58 182.232 1810.22 181.665C1817.01 181.098 1825.5 178.831 1829.46 172.596C1833.42 166.644 1832.01 158.425 1825.5 155.025C1816.44 150.207 1800.31 158.992 1793.8 165.511C1793.24 166.078 1787.3 173.446 1785.88 175.43C1786.73 168.628 1787.3 161.543 1788.43 155.025C1789.84 145.672 1791.82 136.603 1794.37 128.101C1794.94 128.384 1811.07 134.336 1818.99 133.769C1825.78 133.202 1834.27 130.935 1838.23 124.7C1842.19 118.748 1840.78 110.53 1834.27 107.129C1825.21 102.311 1809.09 111.096 1802.58 117.615C1802.01 118.182 1795.79 126.117 1794.65 127.534C1794.94 126.967 1794.94 126.4 1794.94 125.834C1797.77 116.765 1801.73 108.262 1805.69 100.327C1807.95 95.7923 1810.5 91.5412 1813.05 87.5735C1815.88 88.9905 1829.18 95.5089 1836.25 95.7923C1843.04 96.0757 1851.81 94.6587 1856.34 88.9905C1860.87 83.6058 1860.3 75.1035 1854.36 71.1358C1845.87 65.4676 1828.89 72.2694 1821.54 77.9376C1821.25 78.221 1817.57 81.9053 1815.03 84.456C1816.16 82.7555 1817.29 80.7717 1818.42 79.0712C1822.67 72.5528 1826.91 66.8847 1830.87 62.0667C1833.14 59.2327 1835.12 56.682 1837.1 54.4147C1840.78 54.4147 1855.21 53.8479 1861.44 51.0138C1867.66 48.1797 1874.74 42.795 1876.15 35.7098C1877.57 28.908 1873.32 21.5394 1865.96 20.9726C1855.78 19.8389 1843.89 33.7259 1840.21 42.2282C1839.93 43.0784 1836.25 54.6981 1836.25 54.6981H1836.53C1834.55 56.9654 1832.57 59.2327 1830.31 61.7833C1826.35 66.6013 1821.82 72.2694 1817.57 78.5044C1813.05 84.7394 1808.52 91.8246 1804.27 99.76C1800.03 107.695 1796.07 116.198 1792.96 125.267V125.55C1792.96 122.433 1792.96 114.214 1792.67 113.647C1791.54 104.578 1783.9 87.8569 1774 85.873C1766.64 84.456 1760.7 90.1241 1760.13 97.2093C1759.56 104.295 1764.66 111.663 1769.75 116.198C1775.41 121.299 1791.26 126.4 1792.67 126.684C1789.84 135.469 1787.58 144.822 1785.88 154.458C1785.03 159.843 1784.18 165.511 1783.33 170.895C1783.33 168.345 1783.33 166.077 1783.33 165.794C1782.2 156.725 1774.56 140.004 1764.66 138.02C1757.3 136.603 1751.36 142.271 1750.79 149.356C1750.23 156.442 1755.32 163.81 1760.41 168.345C1765.51 172.879 1779.09 177.414 1782.49 178.547C1782.2 180.815 1781.92 182.799 1781.64 185.066C1780.5 195.269 1779.37 205.471 1777.67 215.391C1777.11 218.791 1776.54 222.476 1775.98 225.877C1775.98 223.609 1775.98 221.625 1775.98 221.342C1774.84 212.273 1767.2 195.552 1757.3 193.568C1749.94 192.151 1744 197.819 1743.43 204.904C1742.87 211.99 1747.96 219.358 1753.06 223.893C1757.87 228.144 1770.32 232.678 1774.56 233.812C1773.71 237.213 1773.15 240.897 1772.3 244.298C1771.73 246.565 1771.17 248.833 1770.32 251.1C1769.47 253.367 1768.9 255.634 1768.05 257.902C1766.64 262.153 1764.94 266.404 1763.24 270.655C1762.11 273.489 1760.98 276.323 1759.85 278.874C1760.41 275.473 1761.26 268.388 1761.26 267.821C1761.26 261.869 1759.28 251.95 1755.04 245.148C1755.04 244.298 1755.04 243.448 1754.75 242.598C1753.62 235.512 1747.11 230.411 1740.04 232.395C1730.13 234.946 1723.91 252.234 1723.34 261.303C1723.34 261.869 1723.63 267.821 1723.91 271.505C1723.34 269.238 1723.06 267.254 1722.49 264.987C1721.36 260.736 1720.23 256.201 1719.1 251.667C1718.53 249.399 1717.68 247.132 1717.12 244.865C1716.55 242.598 1715.42 240.33 1714.85 238.063C1712.87 232.678 1710.61 227.294 1708.34 222.192C1712.02 221.342 1725.61 217.941 1730.98 213.69C1736.36 209.439 1742.02 202.637 1742.02 195.552C1742.02 188.467 1736.36 182.515 1729 183.082C1718.81 184.216 1710.04 200.37 1708.34 209.156C1708.34 209.722 1707.5 216.241 1707.5 219.925C1706.08 216.808 1704.67 213.69 1702.97 210.289C1698.44 201.22 1693.63 192.151 1688.82 183.082C1687.4 180.248 1685.99 177.414 1684.57 174.58C1685.99 174.296 1702.12 170.612 1708.06 165.794C1713.44 161.543 1719.1 154.741 1719.1 147.656C1719.1 140.571 1713.44 134.619 1706.08 135.186C1695.89 136.32 1687.12 152.474 1685.42 161.26C1685.42 161.826 1684.57 171.462 1684.29 173.73C1681.18 167.495 1678.07 161.543 1675.24 155.308C1671.27 146.806 1667.88 138.02 1665.33 129.518C1665.9 129.234 1682.88 125.55 1689.1 120.732C1694.48 116.481 1700.14 109.679 1700.14 102.594C1700.14 95.5089 1694.48 89.5573 1687.12 90.1241C1676.93 91.2578 1668.16 107.412 1666.46 116.198C1666.18 116.765 1665.33 126.967 1665.33 128.951C1665.05 128.384 1665.05 127.817 1664.77 127.534C1661.94 118.465 1660.52 109.112 1659.67 100.327C1659.11 95.2255 1658.82 90.4076 1658.82 85.5896C1661.94 85.3062 1676.65 83.3223 1682.88 79.638C1688.82 76.2371 1695.04 70.0022 1695.89 62.917C1696.74 55.8318 1691.65 49.3134 1684.29 49.3134C1674.1 49.3134 1663.63 64.334 1660.8 73.1197C1660.52 73.6865 1659.67 78.5044 1658.82 82.1887C1658.82 79.9214 1658.82 77.9376 1658.82 75.6703C1658.82 68.0183 1659.39 60.9331 1659.67 54.6981C1659.96 51.0138 1660.24 47.8963 1660.8 45.0623C1663.63 43.0784 1675.52 34.5762 1679.2 28.6246C1682.59 22.673 1685.71 14.4542 1682.88 7.65239C1680.33 1.13401 1672.69 -2.5503 1666.18 0.850599C1657.13 5.66854 1654.86 23.8067 1656.28 32.8757C1656.28 33.7259 1659.96 45.6291 1659.96 45.3457H1660.24C1659.96 48.1797 1659.39 51.2972 1659.11 54.6981C1658.54 60.9331 1657.97 68.0183 1657.69 75.6703C1657.41 83.3223 1657.41 91.8246 1658.26 100.61C1659.11 109.396 1660.24 118.748 1662.78 128.101V128.384C1661.09 125.834 1656.56 119.032 1655.99 118.465C1650.05 111.663 1634.49 101.744 1625.15 105.712C1618.36 108.546 1616.38 116.765 1619.77 122.999C1623.45 129.801 1631.66 132.919 1638.45 134.052Z" fill="#1A7F72"/>
<path d="M1813.05 86.1563C1813.33 86.1563 1816.16 74.2532 1816.44 73.4029C1817.57 64.3339 1814.74 46.1958 1805.69 41.6612C1799.18 38.5437 1791.82 42.228 1789.28 49.0298C1786.73 55.8316 1789.84 64.0505 1793.52 69.7186C1798.05 76.5204 1813.05 86.1563 1813.05 86.1563Z" fill="#1A7F72"/>
<path d="M1281.9 82.1882C1289.25 85.3057 1307.08 85.0223 1307.08 85.0223C1307.36 85.0223 1303.12 73.4026 1302.84 72.5523C1298.87 64.3335 1286.42 50.7299 1276.52 52.1469C1269.16 52.9972 1265.2 60.3658 1266.9 67.1676C1268.6 74.2528 1275.67 79.3541 1281.9 82.1882Z" fill="#1A7F72"/>
<path d="M1288.12 134.052C1295.76 135.186 1311.61 130.652 1313.02 130.085C1315.57 139.154 1318.97 147.939 1322.64 157.008C1324.91 162.11 1327.17 167.211 1329.72 172.312C1328.3 170.045 1326.89 168.345 1326.61 168.061C1320.66 161.26 1305.1 151.34 1295.76 155.308C1288.97 158.142 1286.99 166.361 1290.38 172.596C1293.78 178.831 1302.27 181.948 1308.78 183.082C1315.57 184.216 1329.15 180.531 1332.83 179.398C1333.68 181.382 1334.81 183.365 1335.66 185.066C1340.19 194.418 1345 203.487 1349.24 212.556C1350.66 215.674 1352.07 219.075 1353.49 222.192C1352.07 220.208 1351.22 218.791 1350.94 218.508C1345 211.706 1329.44 201.787 1320.1 205.755C1313.31 208.589 1311.32 216.808 1314.72 223.043C1318.12 229.277 1326.61 232.395 1333.11 233.529C1339.62 234.379 1352.36 231.261 1356.6 230.128C1358.02 233.529 1359.15 236.93 1360.28 240.047C1361.13 242.314 1361.98 244.582 1362.54 246.849C1363.11 249.116 1363.68 251.383 1364.53 253.651C1365.66 257.902 1366.79 262.436 1367.64 266.687C1368.2 269.521 1368.77 272.639 1369.34 275.473C1367.92 272.356 1364.81 266.121 1364.53 265.554C1359.71 257.902 1345.85 245.715 1335.94 248.266C1328.87 249.966 1325.76 257.902 1328.02 264.42C1330.57 271.222 1338.21 275.473 1344.72 277.457C1351.79 279.724 1367.64 277.74 1369.62 277.457C1370.47 282.275 1371.32 286.809 1372.17 291.06C1373.86 299.846 1375 308.065 1375.84 314.867H1382.35C1381.22 307.782 1379.81 299.279 1377.83 289.927C1376.98 285.109 1375.84 280.008 1374.71 274.623C1375.84 274.056 1382.64 271.505 1388.58 268.104C1393.67 273.773 1407.25 280.291 1408.95 281.141C1407.25 285.676 1405.27 289.927 1403.58 293.895C1400.18 301.547 1397.07 308.632 1394.24 314.583H1401.31C1403.86 309.199 1406.41 302.964 1409.24 296.162C1411.22 291.627 1412.91 286.809 1414.9 281.708C1416.88 281.991 1432.44 285.392 1439.8 283.692C1446.31 282.275 1454.51 278.307 1457.34 271.789C1460.17 265.27 1457.63 257.335 1450.55 255.068C1440.93 251.95 1426.21 262.72 1420.84 270.088C1420.55 270.655 1417.73 275.473 1415.74 278.874C1416.59 276.89 1417.16 274.906 1418.01 272.639C1419.42 268.388 1420.84 264.137 1422.54 259.602C1423.1 257.335 1423.95 255.068 1424.52 252.8C1425.37 250.533 1425.65 247.982 1426.21 245.715C1427.63 240.33 1428.48 234.662 1429.61 228.711C1433.29 230.128 1446.31 234.662 1453.38 234.095C1460.17 233.529 1468.66 231.261 1472.62 225.026C1476.58 219.075 1475.17 210.856 1468.66 207.455C1459.61 202.637 1443.48 211.423 1436.97 217.941C1436.68 218.225 1432.44 223.609 1430.18 226.443C1430.74 223.043 1431.31 219.642 1431.59 215.957C1432.72 205.755 1433.85 195.552 1434.7 185.349C1434.99 182.232 1435.27 179.114 1435.55 175.997C1436.97 176.564 1452.25 182.232 1459.89 181.665C1466.68 181.098 1475.17 178.831 1479.13 172.596C1483.09 166.644 1481.68 158.425 1475.17 155.025C1466.11 150.207 1449.98 158.992 1443.48 165.511C1442.91 166.078 1436.97 173.446 1435.55 175.43C1436.4 168.628 1436.97 161.543 1438.1 155.025C1439.51 145.672 1441.5 136.603 1444.04 128.101C1444.61 128.384 1460.74 134.336 1468.66 133.769C1475.45 133.202 1483.94 130.935 1487.9 124.7C1491.87 118.748 1490.45 110.53 1483.94 107.129C1474.89 102.311 1458.76 111.096 1452.25 117.615C1451.68 118.182 1445.46 126.117 1444.33 127.534C1444.61 126.967 1444.61 126.4 1444.61 125.834C1447.44 116.765 1451.4 108.262 1455.36 100.327C1457.63 95.7923 1460.17 91.5412 1462.72 87.5735C1465.55 88.9905 1478.85 95.5089 1485.92 95.7923C1492.71 96.0757 1501.49 94.6587 1506.01 88.9905C1510.54 83.6058 1509.98 75.1035 1504.03 71.1358C1495.54 65.4676 1478.57 72.2694 1471.21 77.9376C1470.93 78.221 1467.25 81.9053 1464.7 84.456C1465.83 82.7555 1466.96 80.7717 1468.1 79.0712C1472.34 72.5528 1476.58 66.8847 1480.55 62.0667C1482.81 59.2327 1484.79 56.682 1486.77 54.4147C1490.45 54.4147 1504.88 53.8479 1511.11 51.0138C1517.33 48.1797 1524.41 42.795 1525.82 35.7098C1527.24 28.908 1522.99 21.5394 1515.64 20.9726C1505.45 19.8389 1493.56 33.7259 1489.88 42.2282C1489.6 43.0784 1485.92 54.6981 1485.92 54.6981H1486.21C1484.23 56.9654 1482.24 59.2327 1479.98 61.7833C1476.02 66.6013 1471.49 72.2694 1467.25 78.5044C1462.72 84.7394 1458.19 91.8246 1453.95 99.76C1449.7 107.695 1445.74 116.198 1442.63 125.267V125.55C1442.63 122.433 1442.63 114.214 1442.34 113.647C1441.21 104.578 1433.57 87.8569 1423.67 85.873C1416.31 84.456 1410.37 90.1241 1409.8 97.2093C1409.24 104.295 1414.33 111.663 1419.42 116.198C1425.08 121.299 1440.93 126.4 1442.34 126.684C1439.51 135.469 1437.25 144.822 1435.55 154.458C1434.7 159.843 1433.85 165.511 1433.01 170.895C1433.01 168.345 1433.01 166.077 1433.01 165.794C1431.87 156.725 1424.23 140.004 1414.33 138.02C1406.97 136.603 1401.03 142.271 1400.46 149.356C1399.9 156.442 1404.99 163.81 1410.08 168.345C1415.18 172.879 1428.76 177.414 1432.16 178.547C1431.87 180.815 1431.59 182.799 1431.31 185.066C1430.18 195.269 1429.04 205.471 1427.35 215.391C1426.78 218.791 1426.21 222.476 1425.65 225.877C1425.65 223.609 1425.65 221.625 1425.65 221.342C1424.52 212.273 1416.88 195.552 1406.97 193.568C1399.61 192.151 1393.67 197.819 1393.11 204.904C1392.54 211.99 1397.63 219.358 1402.73 223.893C1407.54 228.144 1419.99 232.678 1424.23 233.812C1423.38 237.213 1422.82 240.897 1421.97 244.298C1421.4 246.565 1420.84 248.833 1419.99 251.1C1419.14 253.367 1418.57 255.634 1417.73 257.902C1416.31 262.153 1414.61 266.404 1412.91 270.655C1411.78 273.489 1410.65 276.323 1409.52 278.874C1410.08 275.473 1410.93 268.388 1410.93 267.821C1410.93 261.869 1408.95 251.95 1404.71 245.148C1404.71 244.298 1404.71 243.448 1404.43 242.598C1403.29 235.512 1396.78 230.411 1389.71 232.395C1379.81 234.946 1373.58 252.234 1373.01 261.303C1373.01 261.869 1373.3 267.821 1373.58 271.505C1373.01 269.238 1372.73 267.254 1372.17 264.987C1371.03 260.736 1369.9 256.201 1368.77 251.667C1368.2 249.399 1367.35 247.132 1366.79 244.865C1366.22 242.598 1365.09 240.33 1364.53 238.063C1362.54 232.678 1360.28 227.294 1358.02 222.192C1361.7 221.342 1375.28 217.941 1380.65 213.69C1386.03 209.439 1391.69 202.637 1391.69 195.552C1391.69 188.467 1386.03 182.515 1378.67 183.082C1368.49 184.216 1359.71 200.37 1358.02 209.156C1358.02 209.722 1357.17 216.241 1357.17 219.925C1355.75 216.808 1354.34 213.69 1352.64 210.289C1348.11 201.22 1343.3 192.151 1338.49 183.082C1337.08 180.248 1335.66 177.414 1334.25 174.58C1335.66 174.296 1351.79 170.612 1357.73 165.794C1363.11 161.543 1368.77 154.741 1368.77 147.656C1368.77 140.571 1363.11 134.619 1355.75 135.186C1345.57 136.32 1336.79 152.474 1335.1 161.26C1335.1 161.826 1334.25 171.462 1333.96 173.73C1330.85 167.495 1327.74 161.543 1324.91 155.308C1320.95 146.806 1317.55 138.02 1315 129.518C1315.57 129.234 1332.55 125.55 1338.77 120.732C1344.15 116.481 1349.81 109.679 1349.81 102.594C1349.81 95.5089 1344.15 89.5573 1336.79 90.1241C1326.61 91.2578 1317.83 107.412 1316.14 116.198C1315.85 116.765 1315 126.967 1315 128.951C1314.72 128.384 1314.72 127.817 1314.44 127.534C1311.61 118.465 1310.19 109.112 1309.34 100.327C1308.78 95.2255 1308.5 90.4076 1308.5 85.5896C1311.61 85.3062 1326.32 83.3223 1332.55 79.638C1338.49 76.2371 1344.72 70.0022 1345.57 62.917C1346.41 55.8318 1341.32 49.3134 1333.96 49.3134C1323.78 49.3134 1313.31 64.334 1310.48 73.1197C1310.19 73.6865 1309.34 78.5044 1308.5 82.1887C1308.5 79.9214 1308.5 77.9376 1308.5 75.6703C1308.5 68.0183 1309.06 60.9331 1309.34 54.6981C1309.63 51.0138 1309.91 47.8963 1310.48 45.0623C1313.31 43.0784 1325.19 34.5762 1328.87 28.6246C1332.27 22.673 1335.38 14.4542 1332.55 7.65239C1330 1.13401 1322.36 -2.5503 1315.85 0.850599C1306.8 5.66854 1304.53 23.8067 1305.95 32.8757C1305.95 33.7259 1309.63 45.6291 1309.63 45.3457H1309.91C1309.63 48.1797 1309.06 51.2972 1308.78 54.6981C1308.21 60.9331 1307.65 68.0183 1307.36 75.6703C1307.08 83.3223 1307.08 91.8246 1307.93 100.61C1308.78 109.396 1309.91 118.748 1312.46 128.101V128.384C1310.76 125.834 1306.23 119.032 1305.67 118.465C1299.72 111.663 1284.16 101.744 1274.82 105.712C1268.03 108.546 1266.05 116.765 1269.44 122.999C1273.12 129.801 1281.33 132.919 1288.12 134.052Z" fill="#1A7F72"/>
<path d="M1463 86.1563C1463.28 86.1563 1466.11 74.2532 1466.4 73.4029C1467.53 64.3339 1464.7 46.1958 1455.64 41.6612C1449.14 38.5437 1441.78 42.228 1439.23 49.0298C1436.68 55.8316 1439.8 64.0505 1443.48 69.7186C1447.72 76.5204 1462.72 86.1563 1463 86.1563Z" fill="#1A7F72"/>
<path d="M1469.51 170.044C1474.04 172.028 1485.07 171.745 1485.07 171.745C1485.07 171.745 1482.81 164.376 1482.53 164.093C1479.98 158.992 1472.34 150.489 1466.11 151.34C1461.59 151.906 1459.04 156.441 1460.17 160.692C1461.3 165.226 1465.55 168.344 1469.51 170.044Z" fill="#1A7F72"/>
<path d="M1473.47 202.353C1478.28 202.92 1488.19 200.086 1488.75 199.803C1490.45 205.471 1492.43 210.856 1494.7 216.524C1496.11 219.641 1497.53 222.759 1498.94 225.876C1498.09 224.459 1497.24 223.326 1496.96 223.326C1493.28 219.075 1483.66 212.84 1477.72 215.39C1473.47 217.091 1472.34 222.192 1474.32 226.16C1476.58 230.127 1481.68 232.111 1485.92 232.678C1490.17 233.245 1498.66 230.978 1500.92 230.411C1501.49 231.545 1502.05 232.678 1502.62 234.095C1505.45 239.763 1508.28 245.432 1511.11 251.1C1511.96 253.084 1512.81 255.067 1513.65 257.051C1512.81 255.918 1512.24 254.784 1511.96 254.784C1508.28 250.533 1498.66 244.298 1492.71 246.849C1488.47 248.549 1487.34 253.65 1489.32 257.618C1491.58 261.586 1496.68 263.57 1500.92 264.136C1504.88 264.703 1512.81 262.719 1515.64 261.869C1516.48 263.853 1517.33 266.12 1517.9 268.104C1518.47 269.521 1518.75 270.938 1519.31 272.355C1519.6 273.772 1520.16 275.189 1520.45 276.606C1521.01 279.44 1521.86 281.991 1522.43 284.825C1522.71 286.809 1523.28 288.51 1523.56 290.21C1522.71 288.226 1520.73 284.258 1520.45 283.975C1517.33 279.157 1508.84 271.788 1502.62 273.206C1498.09 274.339 1496.11 279.157 1497.81 283.125C1499.22 287.376 1504.03 289.927 1508.28 291.344C1512.81 292.761 1522.43 291.344 1523.84 291.344C1524.41 294.178 1524.97 297.295 1525.54 299.846C1526.39 305.231 1527.24 310.332 1527.8 314.583H1532.05C1531.48 310.049 1530.35 304.947 1529.22 298.996C1528.65 295.878 1528.09 292.761 1527.24 289.643C1528.09 289.36 1532.05 287.659 1536.01 285.675C1539.12 289.076 1547.61 293.327 1548.74 293.894C1547.61 296.728 1546.48 299.279 1545.35 301.83C1543.37 306.648 1541.39 310.899 1539.41 314.583H1543.93C1545.35 311.182 1547.05 307.498 1548.74 303.247C1549.88 300.413 1551.01 297.295 1552.14 294.178C1553.27 294.461 1563.18 296.445 1567.7 295.311C1571.95 294.461 1576.76 291.91 1578.74 287.943C1580.44 283.975 1579.02 279.157 1574.5 277.457C1568.55 275.473 1559.21 282.275 1556.1 286.809C1555.82 287.092 1554.12 290.21 1552.99 292.194C1553.55 290.777 1553.84 289.643 1554.4 288.226C1555.25 285.675 1556.1 282.841 1557.23 280.007C1557.52 278.59 1558.08 277.173 1558.37 275.756C1558.93 274.339 1559.21 272.922 1559.5 271.505C1560.35 268.104 1560.91 264.42 1561.48 261.019C1563.74 261.869 1571.95 264.703 1576.19 264.42C1580.44 264.136 1585.81 262.436 1588.08 258.752C1590.34 255.067 1589.49 249.966 1585.53 247.982C1579.87 245.148 1569.68 250.533 1565.72 254.501C1565.44 254.784 1562.89 257.901 1561.48 259.602C1561.76 257.335 1562.04 255.351 1562.33 253.084C1563.18 246.849 1563.74 240.33 1564.31 234.095C1564.59 232.111 1564.59 230.127 1564.87 228.144C1565.72 228.427 1575.34 232.111 1580.15 231.828C1584.4 231.545 1589.78 229.844 1592.04 226.16C1594.3 222.475 1593.45 217.374 1589.49 215.39C1583.83 212.556 1573.65 217.941 1569.68 221.909C1569.4 222.192 1565.72 226.727 1564.87 228.144C1565.44 223.892 1565.72 219.641 1566.57 215.39C1567.42 209.722 1568.55 204.054 1570.25 198.669C1570.53 198.953 1580.72 202.637 1585.53 202.353C1589.78 202.07 1595.15 200.37 1597.42 196.685C1599.68 193.001 1598.83 187.9 1594.87 185.916C1589.21 183.082 1579.02 188.466 1575.06 192.434C1574.78 192.718 1570.82 197.819 1570.25 198.669C1570.25 198.386 1570.53 198.102 1570.53 197.819C1572.23 192.151 1574.78 186.766 1577.04 181.948C1578.46 179.114 1580.15 176.563 1581.57 174.013C1583.27 174.863 1591.76 178.831 1596 179.114C1600.25 179.397 1605.62 178.264 1608.45 174.863C1611.28 171.462 1611 166.361 1607.04 163.81C1601.66 160.409 1591.19 164.377 1586.66 168.061C1586.38 168.345 1584.12 170.612 1582.7 172.029C1583.55 170.895 1584.12 169.762 1584.97 168.628C1587.51 164.66 1590.34 161.259 1592.61 158.142C1594.02 156.441 1595.15 154.741 1596.57 153.324C1598.83 153.324 1607.89 153.04 1611.57 151.057C1615.53 149.356 1619.77 145.955 1620.62 141.421C1621.47 137.17 1618.92 132.635 1614.4 132.068C1608.17 131.501 1600.53 140.004 1598.27 145.105C1597.98 145.672 1595.72 152.757 1596 152.757C1594.87 154.174 1593.45 155.591 1592.32 157.292C1589.78 160.409 1587.23 163.81 1584.4 167.778C1581.57 171.745 1578.74 175.997 1576.19 180.814C1573.65 185.632 1571.1 191.017 1569.12 196.685C1569.12 196.685 1569.12 196.685 1569.12 196.969C1569.12 194.985 1569.12 189.884 1569.12 189.6C1568.27 183.932 1563.74 173.446 1557.52 172.312C1552.99 171.462 1549.31 174.863 1548.74 179.397C1548.46 183.932 1551.57 188.183 1554.69 191.017C1558.37 194.135 1567.99 197.252 1568.84 197.536C1567.14 202.92 1565.72 208.872 1564.59 214.823C1564.03 218.224 1563.46 221.625 1562.89 225.026C1562.89 223.326 1562.89 221.909 1562.89 221.909C1562.04 216.24 1557.52 205.754 1551.29 204.621C1546.76 203.771 1543.08 207.171 1542.52 211.706C1542.24 216.24 1545.35 220.492 1548.46 223.326C1551.57 226.16 1560.06 228.994 1562.33 229.561C1562.04 230.978 1562.04 232.111 1561.76 233.528C1560.91 239.763 1560.35 246.282 1559.5 252.517C1559.21 254.784 1558.65 256.768 1558.37 259.035C1558.37 257.618 1558.37 256.484 1558.37 256.201C1557.52 250.533 1552.99 240.047 1546.76 238.913C1542.24 238.063 1538.56 241.464 1537.99 245.998C1537.71 250.533 1540.82 254.784 1543.93 257.618C1547.05 260.452 1554.69 263.003 1557.23 263.853C1556.67 266.12 1556.38 268.104 1555.82 270.371C1555.54 271.788 1555.25 273.206 1554.69 274.623C1554.12 276.04 1553.84 277.457 1553.27 278.874C1552.42 281.424 1551.29 284.258 1550.44 286.809C1549.88 288.51 1549.03 290.21 1548.46 291.91C1548.74 289.643 1549.31 285.392 1549.31 285.109C1549.31 281.424 1548.18 275.189 1545.35 270.938C1545.35 270.371 1545.35 269.805 1545.35 269.238C1544.78 264.987 1540.54 261.586 1536.29 263.003C1530.07 264.703 1526.39 275.473 1526.11 281.141C1526.11 281.424 1526.39 285.109 1526.39 287.376C1526.11 285.959 1525.82 284.825 1525.54 283.408C1524.97 280.574 1524.13 278.023 1523.28 275.189C1522.99 273.772 1522.43 272.355 1522.14 270.938C1521.86 269.521 1521.3 268.104 1520.73 266.687C1519.6 263.286 1518.18 260.169 1516.77 256.768C1519.03 256.201 1527.52 253.934 1530.92 251.383C1534.31 248.832 1537.71 244.581 1537.71 240.047C1537.71 235.796 1534.03 231.828 1529.5 232.395C1523.28 232.962 1517.62 243.164 1516.48 248.549C1516.48 248.832 1515.92 253.084 1515.92 255.067C1515.07 253.084 1514.22 251.1 1513.09 249.116C1510.26 243.448 1507.15 237.779 1504.32 232.111C1503.47 230.411 1502.62 228.71 1501.49 227.01C1502.34 226.727 1512.24 224.459 1516.2 221.625C1519.6 219.075 1522.99 214.823 1522.99 210.289C1522.99 206.038 1519.31 202.07 1514.79 202.637C1508.56 203.204 1502.9 213.406 1501.77 218.791C1501.77 219.075 1501.2 225.026 1501.2 226.443C1499.22 222.759 1497.24 218.791 1495.54 214.823C1493 209.439 1491.02 204.054 1489.32 198.953C1489.6 198.953 1500.07 196.402 1504.03 193.568C1507.43 191.017 1510.83 186.766 1510.83 182.232C1510.83 177.98 1507.15 174.013 1502.62 174.579C1496.39 175.146 1490.73 185.349 1489.6 190.734C1489.6 191.301 1489.04 197.536 1489.04 198.669C1489.04 198.386 1488.75 198.102 1488.75 197.819C1487.05 192.151 1486.21 186.483 1485.64 180.814C1485.36 177.697 1485.07 174.579 1485.07 171.745C1487.05 171.462 1496.11 170.328 1500.07 168.061C1503.75 165.794 1507.71 162.11 1508 157.575C1508.56 153.324 1505.45 149.073 1500.92 149.073C1494.7 149.073 1488.19 158.425 1486.21 163.81C1486.21 164.093 1485.36 167.211 1485.07 169.478C1485.07 168.061 1485.07 166.644 1485.07 165.51C1485.07 160.692 1485.36 156.441 1485.64 152.474C1485.92 150.206 1485.92 148.223 1486.21 146.522C1487.9 145.388 1495.26 140.004 1497.53 136.319C1499.79 132.635 1501.49 127.534 1499.79 123.283C1498.09 119.315 1493.56 117.048 1489.6 119.032C1483.94 121.866 1482.53 133.202 1483.38 138.87C1483.38 139.437 1485.64 146.805 1485.64 146.805C1485.36 148.506 1485.07 150.49 1484.79 152.474C1484.51 156.441 1483.94 160.692 1483.94 165.51C1483.94 170.328 1483.94 175.43 1484.23 181.098C1484.79 186.483 1485.64 192.434 1487.05 198.386C1487.05 198.386 1487.05 198.386 1487.05 198.669C1485.92 196.969 1483.09 192.718 1482.81 192.434C1479.13 188.183 1469.51 181.948 1463.57 184.499C1459.32 186.199 1458.19 191.301 1460.17 195.268C1464.13 199.803 1469.23 201.787 1473.47 202.353Z" fill="#1A7F72"/>
<path d="M1581.85 172.596C1581.85 172.596 1583.83 165.227 1583.83 164.66C1584.68 158.992 1582.7 147.656 1577.04 145.105C1572.8 143.121 1568.27 145.389 1566.85 149.64C1565.44 153.891 1567.14 158.992 1569.68 162.676C1572.51 166.644 1581.85 172.596 1581.85 172.596Z" fill="#1A7F72"/>
<path d="M564.543 82.1882C571.901 85.3057 589.728 85.0223 589.728 85.0223C590.011 85.0223 585.767 73.4026 585.484 72.5523C581.522 64.3335 569.071 50.7299 559.167 52.1469C551.809 52.9972 547.847 60.3658 549.545 67.1676C550.96 74.2528 558.318 79.3541 564.543 82.1882Z" fill="#1A7F72"/>
<path d="M570.769 134.052C578.409 135.186 594.256 130.652 595.671 130.085C598.218 139.154 601.613 147.939 605.292 157.008C607.556 162.11 609.82 167.211 612.367 172.312C610.952 170.045 609.537 168.345 609.254 168.061C603.311 161.26 587.747 151.34 578.409 155.308C571.618 158.142 569.637 166.361 573.033 172.596C576.428 178.831 584.918 181.948 591.426 183.082C598.218 184.216 611.801 180.531 615.479 179.398C616.328 181.382 617.46 183.365 618.309 185.066C622.837 194.418 627.648 203.487 631.892 212.556C633.307 215.674 634.722 219.075 636.137 222.192C634.722 220.208 633.873 218.791 633.59 218.508C627.647 211.706 612.084 201.787 602.745 205.755C595.954 208.589 593.973 216.808 597.369 223.043C600.765 229.277 609.254 232.395 615.762 233.529C622.271 234.379 635.005 231.261 639.25 230.128C640.665 233.529 641.796 236.93 642.928 240.047C643.777 242.314 644.626 244.582 645.192 246.849C645.758 249.116 646.324 251.383 647.173 253.651C648.305 257.902 649.437 262.436 650.286 266.687C650.852 269.521 651.418 272.639 651.984 275.473C650.569 272.356 647.456 266.121 647.173 265.554C642.362 257.902 628.496 245.715 618.592 248.266C611.518 249.966 608.405 257.902 610.669 264.42C613.216 271.222 620.856 275.473 627.365 277.457C634.439 279.724 650.286 277.74 652.267 277.457C653.116 282.275 653.965 286.809 654.813 291.06C656.511 299.846 657.643 308.065 658.492 314.867H665.001C663.869 307.782 662.454 299.279 660.473 289.927C659.624 285.109 658.492 280.008 657.36 274.623C658.492 274.056 665.284 271.505 671.226 268.104C676.32 273.773 689.903 280.291 691.601 281.141C689.903 285.676 687.922 289.927 686.224 293.895C682.828 301.547 679.716 308.632 676.886 314.583H683.96C686.507 309.199 689.054 302.964 691.884 296.162C693.865 291.627 695.562 286.809 697.543 281.708C699.524 281.991 715.088 285.392 722.445 283.692C728.954 282.275 737.16 278.307 739.99 271.789C742.82 265.27 740.273 257.335 733.199 255.068C723.577 251.95 708.863 262.72 703.486 270.088C703.203 270.655 700.373 275.473 698.392 278.874C699.241 276.89 699.807 274.906 700.656 272.639C702.071 268.388 703.486 264.137 705.184 259.602C705.75 257.335 706.599 255.068 707.165 252.8C708.014 250.533 708.297 247.982 708.863 245.715C710.277 240.33 711.126 234.662 712.258 228.711C715.937 230.128 728.954 234.662 736.029 234.095C742.82 233.529 751.309 231.261 755.271 225.026C759.233 219.075 757.818 210.856 751.309 207.455C742.254 202.637 726.124 211.423 719.616 217.941C719.333 218.225 715.088 223.609 712.824 226.443C713.39 223.043 713.956 219.642 714.239 215.957C715.371 205.755 716.503 195.552 717.352 185.349C717.635 182.232 717.918 179.114 718.201 175.997C719.616 176.564 734.897 182.232 742.537 181.665C749.328 181.098 757.818 178.831 761.78 172.596C765.741 166.644 764.326 158.425 757.818 155.025C748.763 150.207 732.633 158.992 726.124 165.511C725.558 166.078 719.616 173.446 718.201 175.43C719.05 168.628 719.616 161.543 720.748 155.025C722.163 145.672 724.143 136.603 726.69 128.101C727.256 128.384 743.386 134.336 751.309 133.769C758.101 133.202 766.59 130.935 770.552 124.7C774.514 118.748 773.099 110.53 766.59 107.129C757.535 102.311 741.405 111.096 734.897 117.615C734.331 118.182 728.105 126.117 726.973 127.534C727.256 126.967 727.256 126.4 727.256 125.834C730.086 116.765 734.048 108.262 738.009 100.327C740.273 95.7923 742.82 91.5412 745.367 87.5735C748.197 88.9905 761.497 95.5089 768.571 95.7923C775.363 96.0757 784.135 94.6587 788.663 88.9905C793.19 83.6058 792.624 75.1035 786.682 71.1358C778.192 65.4676 761.214 72.2694 753.856 77.9376C753.573 78.221 749.894 81.9053 747.348 84.456C748.48 82.7555 749.611 80.7717 750.743 79.0712C754.988 72.5528 759.233 66.8847 763.195 62.0667C765.458 59.2327 767.439 56.682 769.42 54.4147C773.099 54.4147 787.531 53.8479 793.756 51.0138C799.982 48.1797 807.056 42.795 808.471 35.7098C809.886 28.908 805.641 21.5394 798.284 20.9726C788.097 19.8389 776.212 33.7259 772.533 42.2282C772.25 43.0784 768.571 54.6981 768.571 54.6981H768.854C766.873 56.9654 764.892 59.2327 762.629 61.7833C758.667 66.6013 754.139 72.2694 749.894 78.5044C745.367 84.7394 740.839 91.8246 736.594 99.76C732.35 107.695 728.388 116.198 725.275 125.267V125.55C725.275 122.433 725.275 114.214 724.992 113.647C723.86 104.578 716.22 87.8569 706.316 85.873C698.958 84.456 693.016 90.1241 692.45 97.2093C691.884 104.295 696.977 111.663 702.071 116.198C707.731 121.299 723.577 126.4 724.992 126.684C722.163 135.469 719.899 144.822 718.201 154.458C717.352 159.843 716.503 165.511 715.654 170.895C715.654 168.345 715.654 166.077 715.654 165.794C714.522 156.725 706.882 140.004 696.977 138.02C689.62 136.603 683.677 142.271 683.111 149.356C682.545 156.442 687.639 163.81 692.733 168.345C697.826 172.879 711.409 177.414 714.805 178.547C714.522 180.815 714.239 182.799 713.956 185.066C712.824 195.269 711.692 205.471 709.994 215.391C709.428 218.791 708.863 222.476 708.297 225.877C708.297 223.609 708.297 221.625 708.297 221.342C707.165 212.273 699.524 195.552 689.62 193.568C682.262 192.151 676.32 197.819 675.754 204.904C675.188 211.99 680.282 219.358 685.375 223.893C690.186 228.144 702.637 232.678 706.882 233.812C706.033 237.213 705.467 240.897 704.618 244.298C704.052 246.565 703.486 248.833 702.637 251.1C701.788 253.367 701.222 255.634 700.373 257.902C698.958 262.153 697.26 266.404 695.562 270.655C694.431 273.489 693.299 276.323 692.167 278.874C692.733 275.473 693.582 268.388 693.582 267.821C693.582 261.869 691.601 251.95 687.356 245.148C687.356 244.298 687.356 243.448 687.073 242.598C685.941 235.512 679.433 230.411 672.358 232.395C662.454 234.946 656.228 252.234 655.662 261.303C655.662 261.869 655.945 267.821 656.228 271.505C655.662 269.238 655.379 267.254 654.813 264.987C653.682 260.736 652.55 256.201 651.418 251.667C650.852 249.399 650.003 247.132 649.437 244.865C648.871 242.598 647.739 240.33 647.173 238.063C645.192 232.678 642.928 227.294 640.665 222.192C644.343 221.342 657.926 217.941 663.303 213.69C668.679 209.439 674.339 202.637 674.339 195.552C674.339 188.467 668.679 182.515 661.322 183.082C651.135 184.216 642.362 200.37 640.665 209.156C640.665 209.722 639.816 216.241 639.816 219.925C638.401 216.808 636.986 213.69 635.288 210.289C630.76 201.22 625.95 192.151 621.139 183.082C619.724 180.248 618.309 177.414 616.894 174.58C618.309 174.296 634.439 170.612 640.382 165.794C645.758 161.543 651.418 154.741 651.418 147.656C651.418 140.571 645.758 134.619 638.401 135.186C628.213 136.32 619.441 152.474 617.743 161.26C617.743 161.826 616.894 171.462 616.611 173.73C613.499 167.495 610.386 161.543 607.556 155.308C603.594 146.806 600.199 138.02 597.652 129.518C598.218 129.234 615.196 125.55 621.422 120.732C626.799 116.481 632.458 109.679 632.458 102.594C632.458 95.5089 626.799 89.5573 619.441 90.1241C609.254 91.2578 600.482 107.412 598.784 116.198C598.501 116.765 597.652 126.967 597.652 128.951C597.369 128.384 597.369 127.817 597.086 127.534C594.256 118.465 592.841 109.112 591.992 100.327C591.426 95.2255 591.143 90.4076 591.143 85.5896C594.256 85.3062 608.971 83.3223 615.196 79.638C621.139 76.2371 627.365 70.0022 628.213 62.917C629.062 55.8318 623.969 49.3134 616.611 49.3134C606.424 49.3134 595.954 64.334 593.124 73.1197C592.841 73.6865 591.992 78.5044 591.143 82.1887C591.143 79.9214 591.143 77.9376 591.143 75.6703C591.143 68.0183 591.709 60.9331 591.992 54.6981C592.275 51.0138 592.558 47.8963 593.124 45.0623C595.954 43.0784 607.839 34.5762 611.518 28.6246C614.913 22.673 618.026 14.4542 615.196 7.65239C612.65 1.13401 605.009 -2.5503 598.501 0.850599C589.445 5.66854 587.182 23.8067 588.596 32.8757C588.596 33.7259 592.275 45.6291 592.275 45.3457H592.558C592.275 48.1797 591.709 51.2972 591.426 54.6981C590.86 60.9331 590.294 68.0183 590.011 75.6703C589.728 83.3223 589.728 91.8246 590.577 100.61C591.426 109.396 592.558 118.748 595.105 128.101V128.384C593.407 125.834 588.879 119.032 588.313 118.465C582.371 111.663 566.807 101.744 557.469 105.712C550.677 108.546 548.696 116.765 552.092 122.999C555.771 129.801 563.977 132.919 570.769 134.052Z" fill="#1A7F72"/>
<path d="M745.367 86.1563C745.65 86.1563 748.48 74.2532 748.763 73.4029C749.894 64.3339 747.065 46.1958 738.009 41.6612C731.501 38.5437 724.143 42.228 721.597 49.0298C719.05 55.8316 722.162 64.0505 725.841 69.7186C730.369 76.5204 745.367 86.1563 745.367 86.1563Z" fill="#1A7F72"/>
</g>
<defs>
<clipPath id="clip0_42_0">
<rect width="1877" height="316" fill="white"/>
</clipPath>
</defs>
</svg>
